<mxfile host="app.diagrams.net" modified="2023-07-04T19:59:28.723Z" agent="Mozilla/5.0 (Windows NT 10.0; Win64; x64) AppleWebKit/537.36 (KHTML, like Gecko) Chrome/114.0.0.0 Safari/537.36" version="21.3.7" etag="DlsyT-8mxInBw-QBueC2" type="github">
  <diagram name="Page-1" id="pkKh4bWRQzt7Vh1qB_lG">
    <mxGraphModel>
      <root>
        <mxCell id="0" />
        <mxCell id="1" parent="0" />
      </root>
    </mxGraphModel>
  </diagram>
</mxfile>
